<?xml version="1.0" encoding="utf-8"?>
<!-- Generator: Adobe Illustrator 22.0.1, SVG Export Plug-In . SVG Version: 6.00 Build 0)  -->
<svg version="1.1" id="Layer_1" xmlns="http://www.w3.org/2000/svg" xmlns:xlink="http://www.w3.org/1999/xlink" x="0px" y="0px"
	 viewBox="0 0 62.1 63" style="enable-background:new 0 0 62.1 63;" xml:space="preserve">
<style type="text/css">
	.st0{fill:#2B2A36;}
</style>
<polygon class="st0" points="50.2,15.9 53,13.2 47.5,7.7 44.8,10.4 42.1,7.7 39.3,10.4 36.6,7.7 33.9,10.4 31.2,7.7 28.4,10.4 
	25.7,7.7 23,10.4 20.3,7.7 17.5,10.4 14.8,7.7 6.6,15.9 9.3,18.6 12.1,15.9 14.8,18.6 17.5,15.9 20.3,18.6 23,15.9 25.7,18.6 
	28.4,15.9 31.2,18.6 33.9,15.9 36.5,18.6 8.3,46.8 13.7,52.3 42.1,24.1 44.8,26.8 42.1,29.5 44.8,32.2 42.1,35 44.8,37.7 42.1,40.4 
	44.8,43.2 42.1,45.9 44.8,48.6 42.1,51.3 44.8,54.1 53,45.9 50.2,43.2 53,40.4 50.2,37.7 53,35 50.2,32.2 53,29.5 50.2,26.8 
	53,24.1 50.2,21.3 53,18.6 "/>
</svg>
