<?xml version="1.0" encoding="utf-8"?>
<!-- Generator: Adobe Illustrator 22.0.1, SVG Export Plug-In . SVG Version: 6.00 Build 0)  -->
<svg version="1.1" id="Layer_1" xmlns="http://www.w3.org/2000/svg" xmlns:xlink="http://www.w3.org/1999/xlink" x="0px" y="0px"
	 viewBox="0 0 1040 740" style="enable-background:new 0 0 1040 740;" xml:space="preserve">
<style type="text/css">
	.st0{display:none;}
	.st1{display:inline;opacity:0.32;}
	.st2{display:inline;}
	.st3{fill:#FAF7F0;}
</style>
<g id="svg2" inkscape:version="0.48.4 r9939" sodipodi:docname="0.svg" xmlns:cc="http://creativecommons.org/ns#" xmlns:dc="http://purl.org/dc/elements/1.1/" xmlns:inkscape="http://www.inkscape.org/namespaces/inkscape" xmlns:rdf="http://www.w3.org/1999/02/22-rdf-syntax-ns#" xmlns:sodipodi="http://sodipodi.sourceforge.net/DTD/sodipodi-0.dtd" xmlns:svg="http://www.w3.org/2000/svg" class="st0">
	
		<sodipodi:namedview  bordercolor="#666666" borderopacity="1" gridtolerance="10" guidetolerance="10" id="namedview66" inkscape:current-layer="svg2" inkscape:cx="311.04271" inkscape:cy="540" inkscape:pageopacity="0" inkscape:pageshadow="2" inkscape:window-height="744" inkscape:window-maximized="1" inkscape:window-width="1301" inkscape:window-x="65" inkscape:window-y="24" inkscape:zoom="0.55277778" objecttolerance="10" pagecolor="#ffffff" showgrid="false">
		</sodipodi:namedview>
	<g id="g3074" transform="matrix(1.1420287,0,0,1.1420287,-54.210052,-119.65049)" class="st1">
		<path id="path14" inkscape:connector-curvature="0" d="M128.6,123.9c-0.2,0.7-1.2,4.7-2.1,8.8c-0.9,4.1-2.2,9.7-3,12.5
			c-7.9,29.7-8.9,51.9-2.9,67.7c4.5,12.2,7,16.7,8.9,16.7c2.4,0.1,12.2-15.8,16.2-26.4c6.4-16.5,6.7-18,6.7-33.6
			c0.1-15.7-0.1-16.4-6.7-29.7c-2-3.9-5.4-8.5-8.9-11.8C131.1,122.6,129.2,121.7,128.6,123.9L128.6,123.9z"/>
		<path id="path16" inkscape:connector-curvature="0" d="M789.8,126.9c-7.6,7.2-11.6,13.2-14.9,23c-2.9,8.4-3.1,30.1-0.4,39.3
			c5.1,17.5,17.6,40.9,21.4,40.2c1.4-0.2,5.4-7.2,8-13.7c2.2-5.7,5.1-21.5,5.1-28c0-7.7-2.9-24.7-7.5-43c-0.7-3-2.2-9.1-3.2-13.4
			c-1.1-4.4-2.3-8.1-2.9-8.3C794.9,122.8,792.4,124.6,789.8,126.9L789.8,126.9z"/>
		<path id="path18" inkscape:connector-curvature="0" d="M80.6,197.4c-1,1-0.7,12.5,0.4,18.4c0.6,3,1.5,9,2,13.4
			c2.2,20.1,8,40.9,15.4,55.5c5.7,11.4,18.8,24.9,24.3,25c1.9,0,2.2-0.7,2.9-6.8c1.6-15.4-0.7-41-5.3-57.2
			c-6.1-21.9-17.6-39.3-29.5-44.8C83.7,197.7,81.2,196.8,80.6,197.4z"/>
		<path id="path20" inkscape:connector-curvature="0" d="M840,198.3c-8.7,2.8-18.3,11.3-24.3,21.3c-11.8,19.9-18.4,52.9-16.2,81.1
			c0.8,10.2,1.7,11,7.8,6.8c14.4-10,23.3-25.6,30-52.3c2.8-10.9,4.7-21,4.7-24c0-1.7,0.7-6.5,1.5-10.8s1.5-11.2,1.5-15.3
			C845,197.3,844.6,196.8,840,198.3L840,198.3z"/>
		<path id="path22" inkscape:connector-curvature="0" d="M172.5,246.4c-13.2,16.6-25.4,40.2-30.8,59.3c-4.2,14.6-4.7,17.9-4.7,31.1
			c0,17.1,1.9,23.5,9.9,33.8c3.2,4.1,3.5,4.2,4.8,2.5c1.4-1.9,17.3-34.1,20.1-40.4c0.8-1.9,2.1-4.8,2.8-6.3c0.8-1.6,1.4-3.5,1.4-4.4
			c0-0.8,0.6-2.7,1.4-4.1c1.5-2.9,3.5-9.3,5.9-18.7c3.9-15.2,4.7-29.2,2.3-40.5c-1.4-7-6.1-18-7.7-18
			C177.4,240.7,175,243.3,172.5,246.4z"/>
		<path id="path24" inkscape:connector-curvature="0" d="M745.3,243.4c-3.9,5.9-7.3,19.8-7.3,29.3c0.1,9.6,3.6,28.6,6.6,35.8
			c0.8,1.8,1.4,3.9,1.4,4.7c0,0.8,0.6,2.9,1.4,4.7c0.8,1.8,2.4,5.8,3.6,8.8c6,15,22,47,23.5,47c2.7,0,8.9-9.3,11.9-17.8
			c1.5-4.2,1.9-8.3,1.8-18.8c0-14.2-1.2-21.1-5.9-34.9c-1.4-3.9-2.8-8.4-3.3-10c-3.6-11.7-27.8-51.5-31.4-51.5
			C747.3,240.7,746.2,241.9,745.3,243.4L745.3,243.4z"/>
		<path id="path26" inkscape:connector-curvature="0" d="M71.6,274.5c-1.2,1.1-0.6,20.7,1,31.1c1.9,13.4,4.2,25.3,6,31.1
			c2.6,8.7,5.4,17.1,6.3,18.8c4.5,8.9,6,11.6,9.7,17.3c4.5,6.8,19.7,22.2,23.7,23.9c1.2,0.6,4.1,2.2,6.5,3.6
			c6.2,3.6,7.4,2.8,6.6-4.3c-1.7-17.2-8.6-47.5-14.1-61.8c-0.8-2.2-2.2-5.8-3.1-8c-1.8-4.7-4.8-11.2-6.5-14
			c-7-11.6-11.1-17.1-17.1-23.4C83.6,281.6,72.7,273.3,71.6,274.5L71.6,274.5z"/>
		<path id="path28" inkscape:connector-curvature="0" d="M846,278.9c-8.9,6.7-13.2,11-19.5,19.4c-12.6,16.6-21.9,39.9-27.9,69.4
			c-2.2,10.8-4.4,23.7-5,29.3c-0.7,6.3,0.6,6.7,8.1,2.6c12-6.6,24.1-18.5,32-31.4c2.1-3.4,8.3-16.5,8.3-17.5c0-0.5,0.6-2.4,1.4-4.2
			c3.1-7.2,6.4-21.6,9.1-39.5c1.6-10.6,2.1-31.9,0.8-32.6C852.8,274.1,849.6,276.2,846,278.9L846,278.9z"/>
		<path id="path30" inkscape:connector-curvature="0" d="M177.5,353.1c-0.8,1.9-1.5,4.7-1.5,6.2c0,1.4-0.8,5.4-1.7,8.8
			c-2.5,9.4-2.5,54.1,0,64.6c4.4,17.9,6.5,23.8,12.7,37c6,12.8,18.7,32,21.1,32c2.2,0,5-7.9,6.9-19.5c0.4-2.8,1.3-7,2.1-9.5
			c2-7.2,1.7-45.7-0.5-54c-5.1-19.5-10.2-32.5-16.6-42.5c-1.1-1.7-2.4-3.9-2.9-5c-1.6-3.3-15.5-20.8-16.9-21.3
			C179.5,349.7,178.3,351.1,177.5,353.1L177.5,353.1z"/>
		<path id="path32" inkscape:connector-curvature="0" d="M738.2,357.4c-6,7.5-14.4,20.3-16.3,24.7c-0.5,1.1-1.3,2.8-1.8,3.6
			c-3.6,6.1-8.4,20.1-11.7,33.9c-2.1,9-2.4,44.7-0.4,52.1c0.7,2.5,1.6,7,2.1,10c1.4,9.2,4.3,18.2,6.1,19.4c1.4,0.8,2.1,0.6,3.3-0.9
			c1.9-2.5,10.6-15.4,12.1-18c2.7-4.6,11.4-22.4,11.4-23.4c0-0.6,0.6-2.5,1.4-4.3c7.3-17.2,10.5-44.7,8.2-70.3
			c-0.8-8.8-2-17.6-2.5-19.5c-0.6-1.9-1.1-4.8-1.1-6.5c0-3.3-1.9-7.6-3.6-8.2C744.8,349.8,741.5,353.1,738.2,357.4L738.2,357.4z"/>
		<path id="path34" inkscape:connector-curvature="0" d="M71.6,388.5c-0.9,1.4,3.4,14.8,7.7,24.2c7.1,15.7,22.4,31,42.4,42.5
			c4.3,2.5,8.5,5,9.3,5.5c6.4,3.8,39.6,20,41.1,20c1.7,0,1.9-0.5,1.4-3.8c-1.1-6.5-3.6-13.8-8.2-23.7c-7.4-16.1-23.2-31.6-45.8-45.2
			c-5.2-3.1-23.5-11.7-32.5-15.3c-3-1.1-6.8-2.8-8.3-3.6C75.5,387.5,72.4,387.3,71.6,388.5z"/>
		<path id="path36" inkscape:connector-curvature="0" d="M846,389.4c-1.9,0.9-5,2.2-6.7,2.9c-7.4,3.1-10.5,4.4-13.6,5.7
			c-4.8,2.1-16.9,8.3-20.8,10.6c-1.9,1.2-4.1,2.4-4.9,2.8c-1.4,0.6-4.6,2.9-13.5,9.5c-5.5,4.2-17.5,16.9-21,22.3
			c-3.9,6.2-10.5,19.9-10.5,21.9c0,0.7-0.7,3-1.5,4.9c-2,4.7-2,10.7-0.1,10.7c1.2,0,37.9-18.2,46.6-23.1
			c18.3-10.4,34.6-25,42.7-38.4c5-8.2,12.1-28.4,10.8-30.5C852.6,387.3,850.1,387.6,846,389.4L846,389.4z"/>
		<path id="path38" inkscape:connector-curvature="0" d="M94.6,466.6c-0.6,0.9,0.3,4.2,1.3,5.1c0.3,0.3,1.7,2.1,3.1,4
			c12.2,17.5,35.9,39.9,52.5,49.6c2.7,1.6,5.9,3.4,7,4.1c1.1,0.7,3,1.7,4.3,2.3c1.3,0.5,4.6,2,7.5,3.3c14.6,6.7,28.5,10.3,47.7,12.7
			c10.8,1.3,11,1.3,11-0.5c0-2-10.4-17.8-17.5-26.5c-7.9-9.6-29-28.8-34.5-31.3c-0.8-0.4-2.8-1.6-4.5-2.7c-4.3-2.7-14.6-8.1-17.5-9
			c-1.4-0.5-4.9-1.8-7.9-2.9c-8.2-3.1-20.4-5.8-32.1-7.1C96.3,465.7,95.2,465.6,94.6,466.6z"/>
		<path id="path40" inkscape:connector-curvature="0" d="M823,466.3c-28.5,2.6-41.7,5.9-60.5,15.1c-14.3,7.1-23.7,13.7-35.7,25.6
			c-14.2,13.9-32.8,39-30.6,41.3c0.8,0.7,18.4-1.3,27.3-3.2c15.7-3.3,24.8-6.5,39.5-13.9c6.6-3.3,20.6-11.9,22-13.5
			c0.3-0.3,2.5-2.1,5-4c10.6-8,24-21.9,33.9-35c7.7-10.3,8.4-11.7,6.5-12.4c-0.9-0.3-2.1-0.5-2.7-0.4
			C827,465.9,824.9,466.2,823,466.3L823,466.3z"/>
		<path id="path42" inkscape:connector-curvature="0" d="M230.6,470.4c-1.9,2,2.3,27.3,6.5,39.8c0.6,1.6,1.5,4.3,1.9,6
			c1.8,6.3,7.4,20.1,10,24.5c0.5,0.8,2,3.6,3.4,6.2c3.2,5.9,9.1,15.1,10.8,16.9c0.7,0.8,3.3,3.9,5.8,6.9
			c8.9,10.8,21.7,22.3,34.1,30.3c5.9,3.9,7.8,4.5,8,2.4c1.2-13.8-4.2-42.4-11.2-59.2c-2.2-5.4-8-16.9-9.9-20
			c-1.1-1.7-2.3-3.7-2.7-4.5c-1.6-3.6-10.3-14.1-17.7-21.6c-7.4-7.4-23.5-20.4-25.2-20.4c-0.4,0-1.5-0.6-2.3-1.4
			C239.4,474,231.2,469.8,230.6,470.4L230.6,470.4z"/>
		<path id="path44" inkscape:connector-curvature="0" d="M690.5,471.8c-1.6,1-3.7,2.2-4.5,2.6s-3.5,2-6,3.7
			c-16.4,10.9-33,27.1-41.6,40.6c-8,12.7-16,30.5-18.4,41c-0.4,1.9-1.2,5.5-1.8,8c-2.9,11.8-4.2,20.8-4.2,28.4
			c0,4.5,0.3,8.5,0.6,8.9c1.5,1.5,22.3-14.1,32.9-24.8c14.9-14.9,24.3-29.1,33.9-51c8-18.2,16.2-55.5,13-58.5
			C693.9,470.3,692.2,470.8,690.5,471.8z"/>
		<path id="path46" inkscape:connector-curvature="0" d="M165.5,549.8c-6.5,0.8-12.9,2.9-14.7,4.7c-0.7,0.7-1.7,1.2-2.3,1.2
			c-1.6,0-5.5,4.3-5.5,6.2c0,1.2,14.9,11.9,21,15.1c0.8,0.4,2.9,1.6,4.5,2.7c1.7,1.1,3.9,2.4,5,3s4.7,2.6,8,4.5
			c7.2,4.2,30.2,15.5,36.5,18c2.5,1,5.9,2.3,7.5,3c1.7,0.7,5.5,2,8.5,2.8c3,0.9,8.2,2.3,11.5,3.3c8.9,2.5,32.4,2.6,38.5,0
			c6.8-2.8,7.5-3.2,7.8-4.9c0.4-2-12.6-13.5-28.6-25.1c-3.4-2.5-6.4-4.6-6.6-4.6c-0.3,0-3.1-1.7-6.3-3.8c-6.2-4.2-7.1-4.7-19-10.5
			c-13.4-6.7-24.9-11.3-30.3-12.4c-1.4-0.3-4.5-1.1-7-1.8C188.3,549.5,173.3,548.8,165.5,549.8L165.5,549.8z"/>
		<path id="path48" inkscape:connector-curvature="0" d="M740.5,549.7c-7.7,0.8-16.1,2.9-24.5,6.1c-3,1.1-6.7,2.4-8.1,2.9
			c-1.4,0.4-3.4,1.2-4.5,1.8c-1,0.6-5.3,2.7-9.4,4.7c-18.5,9-40.1,23.7-55.5,37.8c-6.8,6.3-6.8,7.8,0,10.4c16,6,43.6,2.7,69-8.2
			c6.3-2.8,17.1-7.7,18.5-8.5c0.8-0.5,5.1-2.7,9.5-5c4.4-2.2,9.4-5,11-6c1.7-1.1,3.9-2.4,5-3s3.4-1.9,5-3c1.7-1.1,3.7-2.3,4.5-2.7
			s4.3-2.6,7.8-5s6.5-4.3,6.8-4.3s1.8-1,3.4-2.2c4.4-3.2,3.9-5.8-1.9-9.6c-2.8-1.7-5.5-3.2-6.1-3.2s-2.3-0.6-3.8-1.4
			C763.8,549.6,749.6,548.7,740.5,549.7z"/>
		<path id="path50" inkscape:connector-curvature="0" d="M326.5,553.2c-0.5,0.2-2.2,0.6-3.7,0.9c-3.6,0.8-3.6,3.3-0.2,8.3
			c1.4,2.1,3,4.7,3.5,5.8s1.8,3.3,2.9,5c1.1,1.6,2.4,3.9,3,5s1.9,3.3,3,5c1.1,1.6,2.4,3.9,3,5s1.8,3.2,2.8,4.7
			c0.9,1.5,3.5,5.5,5.6,9c9.8,15.7,25.3,33.5,36.6,42.2c6.9,5.3,16.7,9.9,24.6,11.5c7.9,1.7,10.8,1.2,11.2-1.7
			c0.5-3.1-3.1-15-7.3-24.7c-3.9-9-5.9-12.7-10.7-20.3c-1.6-2.4-2.8-4.5-2.8-4.8s-3.3-4.9-7.4-10.2c-12.6-16.5-28.7-30.6-41.1-36.1
			C342.9,554.9,329.5,552.2,326.5,553.2L326.5,553.2z"/>
		<path id="path52" inkscape:connector-curvature="0" d="M585.5,554.7c-10.5,2.7-13.5,4.2-25,12.7c-13,9.5-26.9,25.5-37.2,42.8
			c-2.1,3.5-11,21.9-12.6,26c-2.5,6.5-5,17.2-4.4,18.9c0.8,1.9,4.9,2,12.7,0.2c19.2-4.2,39.3-22.1,59.2-52.6
			c4.1-6.3,17.1-27.7,18.1-30c0.4-0.8,1.6-2.9,2.7-4.5c1.1-1.7,2.3-3.7,2.7-4.5c0.3-0.8,1.4-2.5,2.4-3.8c2.4-3.1,1.5-4.9-2.9-6.2
			C596.3,552.4,593.8,552.5,585.5,554.7L585.5,554.7z"/>
		<path id="path54" inkscape:connector-curvature="0" d="M241.5,628.7c-3.3,0.5-9.1,1.4-13,1.9c-23.2,3.4-40.7,14.3-47.2,29.3
			c-0.7,1.5-0.9,2.9-0.5,3.1c1.4,0.8,19.1,3.7,32.7,5.3c20,2.5,64.6,2.5,76.5,0c19.1-3.9,33.4-10,41.8-17.9c5.6-5.4,6.3-7.1,3.3-8.6
			c-4.1-2.3-21.6-7-34.6-9.5C281.8,628.8,252.7,627,241.5,628.7L241.5,628.7z"/>
		<path id="path56" inkscape:connector-curvature="0" d="M658,628.2c-0.8,0.2-6.9,0.9-13.5,1.5c-11.4,1.1-21.5,2.7-31.5,5.2
			c-2.5,0.6-6.1,1.4-8,1.8c-7.8,1.8-17,5.6-17,7.1c0,1.3,7.1,8.5,11.5,11.5c3.9,2.6,14.1,7.5,18,8.5c1.7,0.4,4.4,1.2,6,1.7
			c1.7,0.6,7.3,1.9,12.5,2.8c13.1,2.5,55.5,2.5,75.5,0c16.1-1.9,31.7-4.6,32.8-5.5c2.6-2.3-10.2-18.4-17.7-22.1
			c-2.2-1.2-4.8-2.5-5.6-2.9c-5.2-3-17.9-6.5-29.5-8.1C683.2,628.6,660.6,627.5,658,628.2z"/>
		<path id="path58" inkscape:connector-curvature="0" d="M362,665.3c-12.2,2.1-22.9,4.4-27.5,6c-2.3,0.8-4.8,1.4-5.7,1.4
			c-1,0-3.2,0.6-5,1.4c-1.8,0.8-5.3,2.2-7.8,3.1c-32.4,12.6-54.1,32.5-56.5,51.9c-0.6,4.3-0.4,5.6,0.6,5.6c2,0,24.1-4,36.4-6.6
			c3.9-0.8,7.9-1.4,9-1.4c1.9,0,8.3-1.3,22-4.7c29.4-7.1,51-16.7,64.7-28.9c8.4-7.4,19.1-23.5,17-25.6
			C405.5,663.8,378.8,662.5,362,665.3z"/>
		<path id="path60" inkscape:connector-curvature="0" d="M521,665.5c-3,1-5.5,2.2-5.5,2.7c0,0.6,1.4,3.7,3,6.9
			c3.6,7.1,14.5,19.1,22,24.1c5.7,3.7,20.8,11.8,24.1,12.8c1,0.3,5.1,1.6,8.9,3c6.5,2.2,9.2,3,23.6,7.1c3.1,0.9,6.4,1.6,7.5,1.6
			c1,0,4.8,0.6,8.4,1.4c13.2,3,21.6,4.6,23.8,4.6c1.3,0,5.1,0.6,8.5,1.4c9.5,2.2,20.7,4,21.2,3.4c0.7-0.7-1.9-11.4-3.7-15.3
			c-5.5-12.2-19.8-25.8-34.8-33.4c-2.5-1.2-5.2-2.6-6-3c-2.1-1.2-7.8-3.6-12.5-5.4c-2.2-0.8-5.8-2.1-8-3
			C577.3,665.5,535.8,660.9,521,665.5L521,665.5z"/>
		<path id="path62" inkscape:connector-curvature="0" d="M443.5,685.7c-3.3,1.7-8.1,4.3-10.7,5.8c-15.6,9.1-28,23.9-29,34.7l-0.3,3
			l6.1,0.3c7.9,0.4,15.9-3.2,22.6-10c5.4-5.5,9.9-14.2,17.9-34.6C451.2,682,450.6,682.1,443.5,685.7z"/>
		<path id="path64" inkscape:connector-curvature="0" d="M476,686.4c1.5,4.8,4,11.3,4.9,13.1c0.5,0.9,2,3.9,3.3,6.5
			c4.1,8.6,4.8,9.5,10.7,14.9c6.9,6.2,13.2,8.8,21.4,8.8h5.9l-0.7-4c-0.4-2.2-1.8-5.9-3.1-8.3c-1.3-2.3-2.8-5.1-3.3-6.2
			c-2.2-5-16.7-16.6-29.3-23.4C476.6,682.8,474.8,682.6,476,686.4L476,686.4z"/>
	</g>
	<g id="g3074_1_" transform="matrix(1.1420287,0,0,1.1420287,-54.210052,-119.65049)" class="st2">
		<path id="path14_1_" inkscape:connector-curvature="0" d="M-805.7,69.3c-0.2,0.7-1.2,4.7-2.1,8.8c-0.9,4.1-2.2,9.7-3,12.5
			c-7.9,29.7-8.9,51.9-2.9,67.7c4.5,12.2,7,16.7,8.9,16.7c2.4,0.1,12.2-15.8,16.2-26.4c6.4-16.5,6.7-18,6.7-33.6
			c0.1-15.7-0.1-16.4-6.7-29.7c-2-3.9-5.4-8.5-8.9-11.8C-803.2,68-805.1,67.1-805.7,69.3L-805.7,69.3z"/>
		<path id="path16_1_" inkscape:connector-curvature="0" d="M-144.5,72.3c-7.6,7.2-11.6,13.2-14.9,23c-2.9,8.4-3.1,30.1-0.4,39.3
			c5.1,17.5,17.6,40.9,21.4,40.2c1.4-0.2,5.4-7.2,8-13.7c2.2-5.7,5.1-21.5,5.1-28c0-7.7-2.9-24.7-7.5-43c-0.7-3-2.2-9.1-3.2-13.4
			c-1.1-4.4-2.3-8.1-2.9-8.3C-139.4,68.2-141.9,70-144.5,72.3L-144.5,72.3z"/>
		<path id="path18_1_" inkscape:connector-curvature="0" d="M-853.7,142.8c-1,1-0.7,12.5,0.4,18.4c0.6,3,1.5,9,2,13.4
			c2.2,20.1,8,40.9,15.4,55.5c5.7,11.4,18.8,24.9,24.3,25c1.9,0,2.2-0.7,2.9-6.8c1.6-15.4-0.7-41-5.3-57.2
			c-6.1-21.9-17.6-39.3-29.5-44.8C-850.6,143.1-853.1,142.2-853.7,142.8z"/>
		<path id="path20_1_" inkscape:connector-curvature="0" d="M-94.3,143.7c-8.7,2.8-18.3,11.3-24.3,21.3
			c-11.8,19.9-18.4,52.9-16.2,81.1c0.8,10.2,1.7,11,7.8,6.8c14.4-10,23.3-25.6,30-52.3c2.8-10.9,4.7-21,4.7-24
			c0-1.7,0.7-6.5,1.5-10.8s1.5-11.2,1.5-15.3C-89.3,142.7-89.7,142.2-94.3,143.7L-94.3,143.7z"/>
		<path id="path22_1_" inkscape:connector-curvature="0" d="M-761.8,191.8c-13.2,16.6-25.4,40.2-30.8,59.3
			c-4.2,14.6-4.7,17.9-4.7,31.1c0,17.1,1.9,23.5,9.9,33.8c3.2,4.1,3.5,4.2,4.8,2.5c1.4-1.9,17.3-34.1,20.1-40.4
			c0.8-1.9,2.1-4.8,2.8-6.3c0.8-1.6,1.4-3.5,1.4-4.4c0-0.8,0.6-2.7,1.4-4.1c1.5-2.9,3.5-9.3,5.9-18.7c3.9-15.2,4.7-29.2,2.3-40.5
			c-1.4-7-6.1-18-7.7-18C-756.9,186.1-759.3,188.7-761.8,191.8z"/>
		<path id="path24_1_" inkscape:connector-curvature="0" d="M-189,188.8c-3.9,5.9-7.3,19.8-7.3,29.3c0.1,9.6,3.6,28.6,6.6,35.8
			c0.8,1.8,1.4,3.9,1.4,4.7s0.6,2.9,1.4,4.7c0.8,1.8,2.4,5.8,3.6,8.8c6,15,22,47,23.5,47c2.7,0,8.9-9.3,11.9-17.8
			c1.5-4.2,1.9-8.3,1.8-18.8c0-14.2-1.2-21.1-5.9-34.9c-1.4-3.9-2.8-8.4-3.3-10c-3.6-11.7-27.8-51.5-31.4-51.5
			C-187,186.1-188.1,187.3-189,188.8L-189,188.8z"/>
		<path id="path26_1_" inkscape:connector-curvature="0" d="M-862.7,219.9c-1.2,1.1-0.6,20.7,1,31.1c1.9,13.4,4.2,25.3,6,31.1
			c2.6,8.7,5.4,17.1,6.3,18.8c4.5,8.9,6,11.6,9.7,17.3c4.5,6.8,19.7,22.2,23.7,23.9c1.2,0.6,4.1,2.2,6.5,3.6
			c6.2,3.6,7.4,2.8,6.6-4.3c-1.7-17.2-8.6-47.5-14.1-61.8c-0.8-2.2-2.2-5.8-3.1-8c-1.8-4.7-4.8-11.2-6.5-14
			c-7-11.6-11.1-17.1-17.1-23.4C-850.7,227-861.6,218.7-862.7,219.9L-862.7,219.9z"/>
		<path id="path28_1_" inkscape:connector-curvature="0" d="M-88.3,224.3c-8.9,6.7-13.2,11-19.5,19.4
			c-12.6,16.6-21.9,39.9-27.9,69.4c-2.2,10.8-4.4,23.7-5,29.3c-0.7,6.3,0.6,6.7,8.1,2.6c12-6.6,24.1-18.5,32-31.4
			c2.1-3.4,8.3-16.5,8.3-17.5c0-0.5,0.6-2.4,1.4-4.2c3.1-7.2,6.4-21.6,9.1-39.5c1.6-10.6,2.1-31.9,0.8-32.6
			C-81.5,219.5-84.7,221.6-88.3,224.3L-88.3,224.3z"/>
		<path id="path30_1_" inkscape:connector-curvature="0" d="M-756.8,298.5c-0.8,1.9-1.5,4.7-1.5,6.2c0,1.4-0.8,5.4-1.7,8.8
			c-2.5,9.4-2.5,54.1,0,64.6c4.4,17.9,6.5,23.8,12.7,37c6,12.8,18.7,32,21.1,32c2.2,0,5-7.9,6.9-19.5c0.4-2.8,1.3-7,2.1-9.5
			c2-7.2,1.7-45.7-0.5-54c-5.1-19.5-10.2-32.5-16.6-42.5c-1.1-1.7-2.4-3.9-2.9-5c-1.6-3.3-15.5-20.8-16.9-21.3
			C-754.8,295.1-756,296.5-756.8,298.5L-756.8,298.5z"/>
		<path id="path32_1_" inkscape:connector-curvature="0" d="M-196.1,302.8c-6,7.5-14.4,20.3-16.3,24.7c-0.5,1.1-1.3,2.8-1.8,3.6
			c-3.6,6.1-8.4,20.1-11.7,33.9c-2.1,9-2.4,44.7-0.4,52.1c0.7,2.5,1.6,7,2.1,10c1.4,9.2,4.3,18.2,6.1,19.4c1.4,0.8,2.1,0.6,3.3-0.9
			c1.9-2.5,10.6-15.4,12.1-18c2.7-4.6,11.4-22.4,11.4-23.4c0-0.6,0.6-2.5,1.4-4.3c7.3-17.2,10.5-44.7,8.2-70.3
			c-0.8-8.8-2-17.6-2.5-19.5c-0.6-1.9-1.1-4.8-1.1-6.5c0-3.3-1.9-7.6-3.6-8.2C-189.5,295.2-192.8,298.5-196.1,302.8L-196.1,302.8z"
			/>
		<path id="path34_1_" inkscape:connector-curvature="0" d="M-862.7,333.9c-0.9,1.4,3.4,14.8,7.7,24.2c7.1,15.7,22.4,31,42.4,42.5
			c4.3,2.5,8.5,5,9.3,5.5c6.4,3.8,39.6,20,41.1,20c1.7,0,1.9-0.5,1.4-3.8c-1.1-6.5-3.6-13.8-8.2-23.7c-7.4-16.1-23.2-31.6-45.8-45.2
			c-5.2-3.1-23.5-11.7-32.5-15.3c-3-1.1-6.8-2.8-8.3-3.6C-858.8,332.9-861.9,332.7-862.7,333.9z"/>
		<path id="path36_1_" inkscape:connector-curvature="0" d="M-88.3,334.8c-1.9,0.9-5,2.2-6.7,2.9c-7.4,3.1-10.5,4.4-13.6,5.7
			c-4.8,2.1-16.9,8.3-20.8,10.6c-1.9,1.2-4.1,2.4-4.9,2.8c-1.4,0.6-4.6,2.9-13.5,9.5c-5.5,4.2-17.5,16.9-21,22.3
			c-3.9,6.2-10.5,19.9-10.5,21.9c0,0.7-0.7,3-1.5,4.9c-2,4.7-2,10.7-0.1,10.7c1.2,0,37.9-18.2,46.6-23.1
			c18.3-10.4,34.6-25,42.7-38.4c5-8.2,12.1-28.4,10.8-30.5C-81.7,332.7-84.2,333-88.3,334.8L-88.3,334.8z"/>
		<path id="path38_1_" inkscape:connector-curvature="0" d="M-839.7,412c-0.6,0.9,0.3,4.2,1.3,5.1c0.3,0.3,1.7,2.1,3.1,4
			c12.2,17.5,35.9,39.9,52.5,49.6c2.7,1.6,5.9,3.4,7,4.1s3,1.7,4.3,2.3c1.3,0.5,4.6,2,7.5,3.3c14.6,6.7,28.5,10.3,47.7,12.7
			c10.8,1.3,11,1.3,11-0.5c0-2-10.4-17.8-17.5-26.5c-7.9-9.6-29-28.8-34.5-31.3c-0.8-0.4-2.8-1.6-4.5-2.7c-4.3-2.7-14.6-8.1-17.5-9
			c-1.4-0.5-4.9-1.8-7.9-2.9c-8.2-3.1-20.4-5.8-32.1-7.1C-838,411.1-839.1,411-839.7,412z"/>
		<path id="path40_1_" inkscape:connector-curvature="0" d="M-111.3,411.7c-28.5,2.6-41.7,5.9-60.5,15.1
			c-14.3,7.1-23.7,13.7-35.7,25.6c-14.2,13.9-32.8,39-30.6,41.3c0.8,0.7,18.4-1.3,27.3-3.2c15.7-3.3,24.8-6.5,39.5-13.9
			c6.6-3.3,20.6-11.9,22-13.5c0.3-0.3,2.5-2.1,5-4c10.6-8,24-21.9,33.9-35c7.7-10.3,8.4-11.7,6.5-12.4c-0.9-0.3-2.1-0.5-2.7-0.4
			C-107.3,411.3-109.4,411.6-111.3,411.7L-111.3,411.7z"/>
		<path id="path42_1_" inkscape:connector-curvature="0" d="M-703.7,415.8c-1.9,2,2.3,27.3,6.5,39.8c0.6,1.6,1.5,4.3,1.9,6
			c1.8,6.3,7.4,20.1,10,24.5c0.5,0.8,2,3.6,3.4,6.2c3.2,5.9,9.1,15.1,10.8,16.9c0.7,0.8,3.3,3.9,5.8,6.9
			c8.9,10.8,21.7,22.3,34.1,30.3c5.9,3.9,7.8,4.5,8,2.4c1.2-13.8-4.2-42.4-11.2-59.2c-2.2-5.4-8-16.9-9.9-20
			c-1.1-1.7-2.3-3.7-2.7-4.5c-1.6-3.6-10.3-14.1-17.7-21.6c-7.4-7.4-23.5-20.4-25.2-20.4c-0.4,0-1.5-0.6-2.3-1.4
			C-694.9,419.4-703.1,415.2-703.7,415.8L-703.7,415.8z"/>
		<path id="path44_1_" inkscape:connector-curvature="0" d="M-243.8,417.2c-1.6,1-3.7,2.2-4.5,2.6s-3.5,2-6,3.7
			c-16.4,10.9-33,27.1-41.6,40.6c-8,12.7-16,30.5-18.4,41c-0.4,1.9-1.2,5.5-1.8,8c-2.9,11.8-4.2,20.8-4.2,28.4
			c0,4.5,0.3,8.5,0.6,8.9c1.5,1.5,22.3-14.1,32.9-24.8c14.9-14.9,24.3-29.1,33.9-51c8-18.2,16.2-55.5,13-58.5
			C-240.4,415.7-242.1,416.2-243.8,417.2z"/>
		<path id="path46_1_" inkscape:connector-curvature="0" d="M-768.8,495.2c-6.5,0.8-12.9,2.9-14.7,4.7c-0.7,0.7-1.7,1.2-2.3,1.2
			c-1.6,0-5.5,4.3-5.5,6.2c0,1.2,14.9,11.9,21,15.1c0.8,0.4,2.9,1.6,4.5,2.7c1.7,1.1,3.9,2.4,5,3s4.7,2.6,8,4.5
			c7.2,4.2,30.2,15.5,36.5,18c2.5,1,5.9,2.3,7.5,3c1.7,0.7,5.5,2,8.5,2.8c3,0.9,8.2,2.3,11.5,3.3c8.9,2.5,32.4,2.6,38.5,0
			c6.8-2.8,7.5-3.2,7.8-4.9c0.4-2-12.6-13.5-28.6-25.1c-3.4-2.5-6.4-4.6-6.6-4.6c-0.3,0-3.1-1.7-6.3-3.8c-6.2-4.2-7.1-4.7-19-10.5
			c-13.4-6.7-24.9-11.3-30.3-12.4c-1.4-0.3-4.5-1.1-7-1.8C-746,494.9-761,494.2-768.8,495.2L-768.8,495.2z"/>
		<path id="path48_1_" inkscape:connector-curvature="0" d="M-193.8,495.1c-7.7,0.8-16.1,2.9-24.5,6.1c-3,1.1-6.7,2.4-8.1,2.9
			c-1.4,0.4-3.4,1.2-4.5,1.8c-1,0.6-5.3,2.7-9.4,4.7c-18.5,9-40.1,23.7-55.5,37.8c-6.8,6.3-6.8,7.8,0,10.4c16,6,43.6,2.7,69-8.2
			c6.3-2.8,17.1-7.7,18.5-8.5c0.8-0.5,5.1-2.7,9.5-5c4.4-2.2,9.4-5,11-6c1.7-1.1,3.9-2.4,5-3s3.4-1.9,5-3c1.7-1.1,3.7-2.3,4.5-2.7
			s4.3-2.6,7.8-5s6.5-4.3,6.8-4.3s1.8-1,3.4-2.2c4.4-3.2,3.9-5.8-1.9-9.6c-2.8-1.7-5.5-3.2-6.1-3.2s-2.3-0.6-3.8-1.4
			C-170.5,495-184.7,494.1-193.8,495.1z"/>
		<path id="path50_1_" inkscape:connector-curvature="0" d="M-607.8,498.6c-0.5,0.2-2.2,0.6-3.7,0.9c-3.6,0.8-3.6,3.3-0.2,8.3
			c1.4,2.1,3,4.7,3.5,5.8s1.8,3.3,2.9,5c1.1,1.6,2.4,3.9,3,5s1.9,3.3,3,5c1.1,1.6,2.4,3.9,3,5s1.8,3.2,2.8,4.7
			c0.9,1.5,3.5,5.5,5.6,9c9.8,15.7,25.3,33.5,36.6,42.2c6.9,5.3,16.7,9.9,24.6,11.5c7.9,1.7,10.8,1.2,11.2-1.7
			c0.5-3.1-3.1-15-7.3-24.7c-3.9-9-5.9-12.7-10.7-20.3c-1.6-2.4-2.8-4.5-2.8-4.8s-3.3-4.9-7.4-10.2c-12.6-16.5-28.7-30.6-41.1-36.1
			C-591.4,500.3-604.8,497.6-607.8,498.6L-607.8,498.6z"/>
		<path id="path52_1_" inkscape:connector-curvature="0" d="M-348.8,500.1c-10.5,2.7-13.5,4.2-25,12.7c-13,9.5-26.9,25.5-37.2,42.8
			c-2.1,3.5-11,21.9-12.6,26c-2.5,6.5-5,17.2-4.4,18.9c0.8,1.9,4.9,2,12.7,0.2c19.2-4.2,39.3-22.1,59.2-52.6
			c4.1-6.3,17.1-27.7,18.1-30c0.4-0.8,1.6-2.9,2.7-4.5c1.1-1.7,2.3-3.7,2.7-4.5c0.3-0.8,1.4-2.5,2.4-3.8c2.4-3.1,1.5-4.9-2.9-6.2
			C-338,497.8-340.5,497.9-348.8,500.1L-348.8,500.1z"/>
		<path id="path54_1_" inkscape:connector-curvature="0" d="M-692.8,574.1c-3.3,0.5-9.1,1.4-13,1.9c-23.2,3.4-40.7,14.3-47.2,29.3
			c-0.7,1.5-0.9,2.9-0.5,3.1c1.4,0.8,19.1,3.7,32.7,5.3c20,2.5,64.6,2.5,76.5,0c19.1-3.9,33.4-10,41.8-17.9c5.6-5.4,6.3-7.1,3.3-8.6
			c-4.1-2.3-21.6-7-34.6-9.5C-652.5,574.2-681.6,572.4-692.8,574.1L-692.8,574.1z"/>
		<path id="path56_1_" inkscape:connector-curvature="0" d="M-276.3,573.6c-0.8,0.2-6.9,0.9-13.5,1.5c-11.4,1.1-21.5,2.7-31.5,5.2
			c-2.5,0.6-6.1,1.4-8,1.8c-7.8,1.8-17,5.6-17,7.1c0,1.3,7.1,8.5,11.5,11.5c3.9,2.6,14.1,7.5,18,8.5c1.7,0.4,4.4,1.2,6,1.7
			c1.7,0.6,7.3,1.9,12.5,2.8c13.1,2.5,55.5,2.5,75.5,0c16.1-1.9,31.7-4.6,32.8-5.5c2.6-2.3-10.2-18.4-17.7-22.1
			c-2.2-1.2-4.8-2.5-5.6-2.9c-5.2-3-17.9-6.5-29.5-8.1C-251.1,574-273.7,572.9-276.3,573.6z"/>
		<path id="path58_1_" inkscape:connector-curvature="0" d="M-572.3,610.7c-12.2,2.1-22.9,4.4-27.5,6c-2.3,0.8-4.8,1.4-5.7,1.4
			c-1,0-3.2,0.6-5,1.4c-1.8,0.8-5.3,2.2-7.8,3.1c-32.4,12.6-54.1,32.5-56.5,51.9c-0.6,4.3-0.4,5.6,0.6,5.6c2,0,24.1-4,36.4-6.6
			c3.9-0.8,7.9-1.4,9-1.4c1.9,0,8.3-1.3,22-4.7c29.4-7.1,51-16.7,64.7-28.9c8.4-7.4,19.1-23.5,17-25.6
			C-528.8,609.2-555.5,607.9-572.3,610.7z"/>
		<path id="path60_1_" inkscape:connector-curvature="0" d="M-413.3,610.9c-3,1-5.5,2.2-5.5,2.7c0,0.6,1.4,3.7,3,6.9
			c3.6,7.1,14.5,19.1,22,24.1c5.7,3.7,20.8,11.8,24.1,12.8c1,0.3,5.1,1.6,8.9,3c6.5,2.2,9.2,3,23.6,7.1c3.1,0.9,6.4,1.6,7.5,1.6
			c1,0,4.8,0.6,8.4,1.4c13.2,3,21.6,4.6,23.8,4.6c1.3,0,5.1,0.6,8.5,1.4c9.5,2.2,20.7,4,21.2,3.4c0.7-0.7-1.9-11.4-3.7-15.3
			c-5.5-12.2-19.8-25.8-34.8-33.4c-2.5-1.2-5.2-2.6-6-3c-2.1-1.2-7.8-3.6-12.5-5.4c-2.2-0.8-5.8-2.1-8-3
			C-357,610.9-398.5,606.3-413.3,610.9L-413.3,610.9z"/>
		<path id="path62_1_" inkscape:connector-curvature="0" d="M-490.8,631.1c-3.3,1.7-8.1,4.3-10.7,5.8c-15.6,9.1-28,23.9-29,34.7
			l-0.3,3l6.1,0.3c7.9,0.4,15.9-3.2,22.6-10c5.4-5.5,9.9-14.2,17.9-34.6C-483.1,627.4-483.7,627.5-490.8,631.1z"/>
		<path id="path64_1_" inkscape:connector-curvature="0" d="M-458.3,631.8c1.5,4.8,4,11.3,4.9,13.1c0.5,0.9,2,3.9,3.3,6.5
			c4.1,8.6,4.8,9.5,10.7,14.9c6.9,6.2,13.2,8.8,21.4,8.8h5.9l-0.7-4c-0.4-2.2-1.8-5.9-3.1-8.3c-1.3-2.3-2.8-5.1-3.3-6.2
			c-2.2-5-16.7-16.6-29.3-23.4C-457.7,628.2-459.5,628-458.3,631.8L-458.3,631.8z"/>
	</g>
</g>
<polygon class="st3" points="119.1,306.5 155.7,219.9 159.3,193.7 155,155.2 149,155.2 111.1,218.9 102.4,273.4 113,306.5 "/>
<polygon class="st3" points="87.7,234 87.7,180 58.8,116.2 42.2,106.7 36,106.7 56.3,201.7 82,234 "/>
<polygon class="st3" points="93.7,142.6 118.9,92 118.9,56.2 96.1,21.5 92.7,21.9 79.1,96.3 89.8,142.6 "/>
<polygon class="st3" points="94.7,339.9 75.6,251.4 37.2,199.4 30,193.7 25.3,193.7 36,266.8 65.7,320 89.8,339.9 "/>
<polygon class="st3" points="144.2,429.3 125,382.4 65.4,337.8 33.3,323.8 27.6,324 40.9,360.1 100.9,409.5 139.3,429.3 "/>
<polygon class="st3" points="183.5,453.3 195.3,410 194.1,360.7 170.9,304.3 155.7,279.9 151.6,280 142.7,344 144.2,370.9 
	178.7,453.3 "/>
<polygon class="st3" points="301.3,571 286.2,497 251.7,447.3 214.3,417.5 209.2,417.6 220.3,474.8 269.6,549.4 298,571 "/>
<polygon class="st3" points="207.3,505.3 142.8,436.2 85.9,415.7 55,412.5 53.6,417.5 101.9,468.4 162.2,499.5 207.3,509.3 "/>
<polygon class="st3" points="279.1,576.3 220.9,531.5 152.1,507.7 115.4,515 109.1,522.1 125.7,534.8 227.9,582.3 279.1,582.3 "/>
<polygon class="st3" points="330.4,615 239.3,597.6 173.3,611.9 152.1,631.3 152.3,637.5 228,645.7 305.5,635 330.4,621.7 "/>
<polygon class="st3" points="424.1,627.1 388.1,553.9 337.5,514.8 321.3,511.7 311.3,514.7 370.7,604.6 418,630.1 "/>
<polygon class="st3" points="413.1,642.7 376.3,638.6 292,660.2 249.6,694.2 242.2,713 242.8,719.4 330.5,702.1 402.3,662.7 
	415,648 "/>
<polygon class="st3" points="459,660.3 413.4,694.2 406.6,713.1 413.6,713.5 442.9,698 463.3,660.3 "/>
<polygon class="st3" points="925.6,306.5 889,219.9 885.4,193.7 889.7,155.2 895.7,155.2 933.6,218.9 942.2,273.4 931.7,306.5 "/>
<polygon class="st3" points="957,234 957,180 985.9,116.2 1002.5,106.7 1008.7,106.7 988.3,201.7 962.7,234 "/>
<polygon class="st3" points="951,142.6 925.7,92 925.7,56.2 948.5,21.5 952,21.9 965.5,96.3 954.8,142.6 "/>
<polygon class="st3" points="950,339.9 969,251.4 1007.5,199.4 1014.7,193.7 1019.3,193.7 1008.7,266.8 979,320 954.8,339.9 "/>
<polygon class="st3" points="900.4,429.3 919.6,382.4 979.3,337.8 1011.4,323.8 1017.1,324 1003.8,360.1 943.7,409.5 905.3,429.3 
	"/>
<polygon class="st3" points="861.2,453.3 849.4,410 850.6,360.7 873.8,304.3 889,279.9 893.1,280 901.9,344 900.4,370.9 866,453.3 
	"/>
<polygon class="st3" points="743.4,571 758.5,497 792.9,447.3 830.3,417.5 835.5,417.6 824.3,474.8 775.1,549.4 746.7,571 "/>
<polygon class="st3" points="837.3,505.3 901.9,436.2 958.8,415.7 989.7,412.5 991,417.5 942.8,468.4 882.5,499.5 837.3,509.3 "/>
<polygon class="st3" points="765.6,576.3 823.8,531.5 892.6,507.7 929.3,515 935.5,522.1 919,534.8 816.7,582.3 765.6,582.3 "/>
<polygon class="st3" points="714.3,615 805.3,597.6 871.3,611.9 892.6,631.3 892.4,637.5 816.7,645.7 739.1,635 714.3,621.7 "/>
<polygon class="st3" points="620.6,627.1 656.6,553.9 707.1,514.8 723.3,511.7 733.3,514.7 674,604.6 626.7,630.1 "/>
<polygon class="st3" points="631.5,642.7 668.3,638.6 752.7,660.2 795,694.2 802.5,713 801.8,719.4 714.2,702.1 642.4,662.7 
	629.7,648 "/>
<polygon class="st3" points="585.7,660.3 631.2,694.2 638.1,713.1 631.1,713.5 601.8,698 581.3,660.3 "/>
</svg>
